<?xml version="1.0" encoding="utf-8"?>
<!-- Generator: Adobe Illustrator 16.0.0, SVG Export Plug-In . SVG Version: 6.00 Build 0)  -->
<!DOCTYPE svg PUBLIC "-//W3C//DTD SVG 1.1//EN" "http://www.w3.org/Graphics/SVG/1.1/DTD/svg11.dtd">
<svg version="1.1" id="Capa_1" xmlns="http://www.w3.org/2000/svg" xmlns:xlink="http://www.w3.org/1999/xlink" x="0px" y="0px"
	 width="551.063px" height="551.063px" viewBox="0 0 551.063 551.063" enable-background="new 0 0 551.063 551.063"
	 xml:space="preserve">
<g>
	<g id="XMLID_1_">
		<g>
			<path fill="#FFFFFF" d="M508.701,187.851c38.37,15.67,53.43,67.56,33.66,116.03c-19.771,48.48-66.89,74.98-105.26,59.37
				c-38.37-15.609-53.431-67.569-33.66-116.04C423.211,198.741,470.331,172.181,508.701,187.851z"/>
			<path fill="#FFFFFF" d="M465.191,453.461c14.75,67.69-58.75,82.37-91.13,73.561c-32.37-8.811-98.41-10.28-98.41-10.28
				s-66.22,1.47-98.59,10.28c-32.38,8.87-105.94-5.87-91.25-73.561c14.69-67.689,79.44-64.75,97.19-156
				c17.68-91.25,92.71-85.38,92.71-85.38s74.85-5.87,92.54,85.38C385.871,388.711,450.501,385.771,465.191,453.461z"/>
			<path fill="#FFFFFF" d="M396.091,24.081c39.851,11.5,60.351,61.57,45.841,111.81c-14.5,50.31-58.5,81.76-98.351,70.26
				c-39.84-11.51-60.34-61.57-45.83-111.81C312.251,44.031,356.251,12.571,396.091,24.081z"/>
			<path fill="#FFFFFF" d="M253.251,94.341c14.51,50.24-5.99,100.3-45.84,111.81c-39.84,11.5-83.84-19.95-98.34-70.2
				c-14.51-50.24,6.05-100.3,45.84-111.81C194.691,12.631,238.751,44.091,253.251,94.341z"/>
			<path fill="#FFFFFF" d="M147.621,247.211c19.77,48.41,4.71,100.37-33.66,116.04c-38.37,15.67-85.49-10.89-105.26-59.37
				c-19.77-48.399-4.71-100.359,33.66-116.03C80.731,172.181,127.851,198.801,147.621,247.211z"/>
		</g>
		<g>
		</g>
	</g>
</g>
</svg>
