<?xml version="1.0" encoding="utf-8"?>
<!-- Generator: Adobe Illustrator 16.0.0, SVG Export Plug-In . SVG Version: 6.00 Build 0)  -->
<!DOCTYPE svg PUBLIC "-//W3C//DTD SVG 1.1//EN" "http://www.w3.org/Graphics/SVG/1.1/DTD/svg11.dtd">
<svg version="1.1" id="Capa_1" xmlns="http://www.w3.org/2000/svg" xmlns:xlink="http://www.w3.org/1999/xlink" x="0px" y="0px"
	 width="45.629px" height="45.629px" viewBox="0 0 45.629 45.629" enable-background="new 0 0 45.629 45.629" xml:space="preserve">
<g>
	<g id="XMLID_1_">
		<g>
			<path fill="#FFFFFF" d="M27.334,19.255c0.671,1.71,0.211,3.67-0.979,5.07c-0.49,0.57-1.01,0.95-1.56,1.2
				c-0.061,0.03-0.12,0.04-0.181,0.04c-0.3,0-0.55-0.31-0.41-0.62c0.591-1.26,0.71-2.79,0.051-4.48c-0.5-1.3-1.271-2.23-2.181-2.83
				c-0.01,0.04-7.44,8.041-8,20.11c2.68-0.699,5.63-1.09,8.73-1.09c1.27,0,2.51,0.07,3.72,0.19c-0.1-2.57-0.83-4.351-0.82-4.351
				c-0.46,0.061-0.909,0.351-1.31,0.79c-0.521,0.58-0.7,1.2-0.66,1.8c0.021,0.171-0.2,0.261-0.32,0.141
				c-0.18-0.18-0.33-0.41-0.439-0.71c-0.27-0.75-0.16-1.601,0.37-2.19c0.35-0.38,0.8-0.6,1.279-0.67
				c-0.52-0.04-1.079,0.021-1.669,0.21c-1.26,0.4-2.04,1.2-2.43,2.13c-0.08,0.181-0.32,0.181-0.39,0
				c-0.17-0.5-0.23-1.069-0.07-1.739c0.27-1.16,1.08-2.171,2.22-2.521c0.37-0.12,0.74-0.16,1.11-0.15
				c-0.04-0.01-0.07-0.02-0.1-0.029c-1.24-0.3-2.29-0.07-3.1,0.47c-0.2,0.13-0.45-0.05-0.39-0.27c0.11-0.431,0.33-0.86,0.71-1.271
				c0.86-0.95,2.16-1.42,3.399-1.07c0.45,0.131,0.851,0.341,1.19,0.61c0.11-0.42,0.31-0.82,0.6-1.18c0.08-0.101,0.16-0.19,0.25-0.28
				c0.811-0.8,2-1.08,3.141-0.84c0.569,0.12,1,0.35,1.35,0.64c0.16,0.141,0.07,0.42-0.149,0.42c-0.99,0.03-1.99,0.45-2.82,1.431
				c-0.03,0.029-0.05,0.06-0.07,0.08c0.29-0.221,0.62-0.4,0.99-0.521c1.13-0.38,2.38-0.03,3.27,0.75c0.53,0.47,0.82,0.98,0.971,1.5
				c0.04,0.17-0.141,0.31-0.28,0.22c-0.87-0.56-1.99-0.76-3.271-0.35c-0.59,0.189-1.079,0.47-1.47,0.81
				c0.42-0.229,0.92-0.31,1.431-0.199c0.77,0.159,1.359,0.79,1.569,1.55c0.09,0.31,0.101,0.58,0.061,0.84
				c-0.03,0.17-0.261,0.22-0.351,0.07c-0.31-0.511-0.83-0.91-1.58-1.08c-0.62-0.141-1.17-0.061-1.62,0.149
				c0.03,0.04,1.061,1.66,1.641,5.12c5.91,1.01,10.8,3.47,13.53,6.7c0.59,0.7,0.069,1.78-0.851,1.77H4.185
				c-0.93,0-1.44-1.09-0.84-1.81c0.3-0.36,0.64-0.71,0.99-1.05c5.88-20.48,14.84-27.17,14.99-27.29c-0.81-0.83-1.94-1.44-3.41-1.64
				c-1.79-0.26-3.25,0.19-4.35,1.05c-0.32,0.25-0.78-0.05-0.7-0.45c0.13-0.58,0.38-1.18,0.81-1.77c1.1-1.48,2.91-2.37,4.72-2.1
				c1.19,0.18,2.22,0.77,2.96,1.61c-0.58-1.06-1.42-2.07-2.56-2.97c-2.45-1.95-5.05-2.43-7.4-1.94c-0.4,0.08-0.68-0.36-0.44-0.69
				c0.74-1.01,1.79-1.9,3.34-2.48c2.6-0.98,5.6-0.7,7.77,1.05c0.7,0.56,1.28,1.23,1.73,1.95c-0.03-0.07-0.05-0.15-0.08-0.23
				c-1.02-2.83-2.86-4.58-5-5.44c-0.47-0.19-0.44-0.88,0.03-1.04c1-0.36,2.14-0.5,3.46-0.3c2.97,0.45,5.56,2.37,6.48,5.23
				c0.33,1.03,0.439,2.08,0.34,3.09c0.97-0.32,2.021-0.45,3.1-0.36c2.99,0.25,5.45,2.34,6.561,5.14c0.479,1.2,0.6,2.32,0.5,3.35
				c-0.05,0.53-0.75,0.71-1.07,0.28c-1.319-1.86-3.43-3.23-6.38-3.57c-0.08-0.01-0.16-0.02-0.24-0.03
				c0.811,0.28,1.58,0.69,2.29,1.24c2.2,1.72,3.15,4.58,2.78,7.34c-0.21,1.59-0.81,2.79-1.59,3.73c-0.29,0.34-0.83,0.14-0.851-0.3
				c-0.079-2.37-1.14-4.75-3.56-6.67c-1.14-0.9-2.31-1.49-3.47-1.81C26.075,17.275,26.885,18.135,27.334,19.255z"/>
		</g>
		<g>
		</g>
	</g>
</g>
</svg>
