<?xml version="1.0" encoding="utf-8"?>
<!-- Generator: Adobe Illustrator 16.0.0, SVG Export Plug-In . SVG Version: 6.00 Build 0)  -->
<!DOCTYPE svg PUBLIC "-//W3C//DTD SVG 1.1//EN" "http://www.w3.org/Graphics/SVG/1.1/DTD/svg11.dtd">
<svg version="1.1" id="Capa_1" xmlns="http://www.w3.org/2000/svg" xmlns:xlink="http://www.w3.org/1999/xlink" x="0px" y="0px"
	 width="590.074px" height="590.074px" viewBox="0 0 590.074 590.074" enable-background="new 0 0 590.074 590.074"
	 xml:space="preserve">
<g>
	<g id="XMLID_1_">
		<g>
			<path fill="#FCFCFC" d="M532.057,205.507c13.5,15.28,21.771,35.29,21.771,57.28c0,37.25-23.56,68.98-56.54,81.21
				c-4.52,43.58-41.35,77.64-86.12,77.64c-18.11,0-34.899-5.399-48.81-14.899l-36.11,37.359c0,0-7.35,39.32-6.68,60.671
				c0.67,21.35,16.02,85.31,16.02,85.31h-104.12c6.72-28.69,16.28-64.14,18.03-95.98c0.92-16.739-3.34-82.64-3.34-82.64
				c-11.43,2.96-35.06-11.87-51.55-23.71c-11.91,6.15-25.39,9.69-39.72,9.69c-47.83,0-86.6-38.78-86.6-86.601
				c0-1.58,0.15-3.12,0.24-4.68c-19.67-15.88-32.28-40.15-32.28-67.39c0-30.82,16.15-57.81,40.4-73.15
				c-0.19-2.3-0.36-4.59-0.36-6.94c0-47.83,38.78-86.59,86.6-86.59c3.63,0,7.19,0.29,10.71,0.72c6.62-41.25,42.28-72.81,85.39-72.81
				c32.53,0,60.819,17.95,75.62,44.46c13.02-7.83,28.21-12.42,44.52-12.42c37.24,0,68.891,23.55,81.12,56.53
				c43.58,4.52,77.56,41.35,77.56,86.12C537.807,185.557,535.707,195.927,532.057,205.507z M346.927,392.787
				c-11.449-12.69-19.17-28.73-21.51-46.52c-3.89,2.189-7.97,4.039-12.189,5.6c-5.83,24.41-18.01,66.56,2.34,60.91
				C325.597,409.997,337.007,401.596,346.927,392.787z M278.187,395.437c8-1.46,12.82-21.15,15.55-38.78
				c-3.51,0.439-7.08,0.74-10.72,0.74c-14.15,0-27.46-3.46-39.25-9.48C254.397,369.947,269.387,397.037,278.187,395.437z
				 M248.827,386.096l-17-35.619c-4.45,8.6-10.27,16.34-17.22,22.97C239.567,390.176,248.817,386.096,248.827,386.096z"/>
		</g>
		<g>
		</g>
	</g>
</g>
</svg>
